<svg width="128" height="128" viewBox="0 0 128 128" fill="none" xmlns="http://www.w3.org/2000/svg">
    <rect width="128" height="128" rx="64" fill="#050B2E"/>
    <path d="M101.302 80.0724V71.417C93.2595 71.417 89.3532 67.0511 89.3532 62.6851V46.3702C89.3532 34.2681 80.2383 25 68.9787 25H59.0979C47.8383 25 38.7234 34.2681 38.7234 46.3702V62.6851C38.7234 67.0511 34.7404 71.417 26.6979 71.417V80.0724C34.434 80.0724 40.5617 76.4724 43.9319 71.5702C45.8468 68.8894 46.8425 65.9787 46.8425 62.6851V44.5319C46.8425 38.4809 51.7446 33.5021 57.7957 33.3489C61.8553 33.1957 66.2979 33.2723 70.3574 33.3489C76.4085 33.5021 81.234 38.4809 81.234 44.5319V62.6851C81.234 65.8255 82.2297 68.8894 84.0681 71.5702C87.3617 76.4724 93.4893 80.0724 101.302 80.0724Z" fill="#C5E4F3"/>
    <path d="M78.1702 66.6681H67.9829H59.9404H49.8298V66.7447C48.8341 78.1575 40.4085 87.2723 29.7617 88.2681V97C31.3702 96.9234 32.9787 96.617 34.5872 96.234C45.8468 93.4766 54.6553 83.9787 57.2595 71.8766C57.4789 70.9112 57.6481 69.9458 57.767 68.966H59.9404V97H67.9829V68.966H70.233C70.3518 69.9458 70.521 70.9112 70.7404 71.8766C73.3447 83.9787 82.1532 93.4766 93.4127 96.234C95.0212 96.617 96.6298 96.9234 98.2383 97V88.2681C87.5914 87.2723 79.166 78.1575 78.1702 66.7447V66.6681Z" fill="#C5E4F3"/>
</svg>
