<svg width="32" height="32" viewBox="0 0 32 32" fill="none" xmlns="http://www.w3.org/2000/svg">
    <rect width="32" height="32" rx="16" fill="#E84142"/>
    <path fill-rule="evenodd" clip-rule="evenodd" d="M11.4691 22.3587H8.36598C7.71393 22.3587 7.39184 22.3587 7.19546 22.2332C6.98334 22.0958 6.85372 21.8681 6.83801 21.6168C6.82621 21.3853 6.98728 21.1026 7.30936 20.5374L14.9713 7.04118C15.2973 6.46808 15.4623 6.18152 15.6704 6.07555C15.8943 5.96172 16.1614 5.96172 16.3853 6.07555C16.5935 6.18152 16.7585 6.46808 17.0845 7.04118L18.6596 9.78893L18.6677 9.80295C19.0198 10.4178 19.1984 10.7296 19.2763 11.0568C19.3627 11.414 19.3627 11.7908 19.2763 12.1481C19.1978 12.4778 19.021 12.7918 18.6636 13.4159L14.6389 20.5256L14.6285 20.5438C14.2741 21.1637 14.0944 21.4779 13.8455 21.7149C13.5745 21.9741 13.2484 22.1624 12.891 22.2685C12.565 22.3587 12.1997 22.3587 11.4691 22.3587ZM19.3054 22.3587H23.7517C24.4077 22.3587 24.7377 22.3587 24.9342 22.2294C25.1463 22.0919 25.2798 21.8602 25.2917 21.6092C25.303 21.3851 25.1454 21.1134 24.8367 20.581C24.8261 20.5629 24.8154 20.5444 24.8046 20.5257L22.5773 16.7181L22.552 16.6752C22.239 16.1463 22.0811 15.8792 21.8782 15.776C21.6544 15.6622 21.391 15.6622 21.1672 15.776C20.963 15.882 20.798 16.1607 20.472 16.722L18.2527 20.5296L18.2451 20.5427C17.9202 21.1031 17.7578 21.3832 17.7696 21.613C17.7853 21.8643 17.9149 22.0958 18.127 22.2332C18.3195 22.3587 18.6494 22.3587 19.3054 22.3587Z" fill="white"/>
</svg>
