<svg width="32" height="32" viewBox="0 0 32 32" fill="none" xmlns="http://www.w3.org/2000/svg">
    <rect width="32" height="32" rx="16" fill="#8247E5"/>
    <path d="M21.1436 13.1958C20.7781 12.9941 20.3081 12.9941 19.8903 13.1958L16.9661 14.8605L14.9817 15.9199L12.1097 17.5846C11.7441 17.7864 11.2742 17.7864 10.8564 17.5846L8.61097 16.273C8.24543 16.0712 7.98433 15.6677 7.98433 15.2136V12.6914C7.98433 12.2878 8.19321 11.8843 8.61097 11.632L10.8564 10.3709C11.2219 10.1691 11.6919 10.1691 12.1097 10.3709L14.3551 11.6825C14.7206 11.8843 14.9817 12.2878 14.9817 12.7418V14.4065L16.9661 13.2967V11.5816C16.9661 11.178 16.7572 10.7745 16.3394 10.5223L12.1619 8.15134C11.7963 7.94955 11.3264 7.94955 10.9086 8.15134L6.62663 10.5727C6.20888 10.7745 6 11.178 6 11.5816V16.3234C6 16.727 6.20888 17.1306 6.62663 17.3828L10.8564 19.7537C11.2219 19.9555 11.6919 19.9555 12.1097 19.7537L14.9817 18.1395L16.9661 17.0297L19.8381 15.4154C20.2037 15.2137 20.6736 15.2137 21.0914 15.4154L23.3368 16.6766C23.7023 16.8783 23.9634 17.2819 23.9634 17.7359V20.2582C23.9634 20.6617 23.7546 21.0653 23.3368 21.3175L21.1436 22.5786C20.7781 22.7804 20.3081 22.7804 19.8903 22.5786L17.6449 21.3175C17.2794 21.1157 17.0183 20.7122 17.0183 20.2582V18.6439L15.0339 19.7537V21.4184C15.0339 21.822 15.2428 22.2255 15.6606 22.4777L19.8903 24.8487C20.2559 25.0504 20.7258 25.0504 21.1436 24.8487L25.3734 22.4777C25.7389 22.276 26 21.8724 26 21.4184V16.6261C26 16.2226 25.7911 15.819 25.3734 15.5668L21.1436 13.1958Z" fill="white"/>
</svg>
